inDegrees=yes
DataType=double
version=3
OpenSimVersion=4.5-2024-07-22-fc2981e9e
endheader
time	pelvis_tx	pelvis_ty	pelvis_tz	pelvis_tilt	pelvis_list	pelvis_rotation	hip_flexion_r	hip_adduction_r	hip_rotation_r	knee_angle_r	ankle_angle_r	subtalar_angle_r	mtp_angle_r	hip_flexion_l	hip_adduction_l	hip_rotation_l	knee_angle_l	ankle_angle_l	subtalar_angle_l	mtp_angle_l	lumbar_extension	lumbar_bending	lumbar_rotation	ground_force_vx	ground_force_vy	ground_force_vz	ground_force_px	ground_force_py	ground_force_pz	ground_force_vx	ground_force_vy	ground_force_vz	ground_force_px	ground_force_py	ground_force_pz	ground_torque_x	ground_torque_y	ground_torque_z	ground_torque_x	ground_torque_y	ground_torque_z	ground_marker_px	ground_marker_py	ground_marker_pz	ground_marker_px	ground_marker_py	ground_marker_pz	ground_marker_px	ground_marker_py	ground_marker_pz	ground_marker_px	ground_marker_py	ground_marker_pz	ground_marker_px	ground_marker_py	ground_marker_pz	ground_marker_px	ground_marker_py	ground_marker_pz	ground_marker_px	ground_marker_py	ground_marker_pz	ground_marker_px	ground_marker_py	ground_marker_pz	ground_marker_px	ground_marker_py	ground_marker_pz	ground_marker_px	ground_marker_py	ground_marker_pz	ground_marker_px	ground_marker_py	ground_marker_pz	ground_marker_px	ground_marker_py	ground_marker_pz	ground_marker_px	ground_marker_py	ground_marker_pz	ground_marker_px	ground_marker_py	ground_marker_pz	ground_marker_px	ground_marker_py	ground_marker_pz	ground_marker_px	ground_marker_py	ground_marker_pz	ground_marker_px	ground_marker_py	ground_marker_pz	ground_marker_px	ground_marker_py	ground_marker_pz	ground_marker_px	ground_marker_py	ground_marker_pz	ground_marker_px	ground_marker_py	ground_marker_pz	ground_marker_px	ground_marker_py	ground_marker_pz	ground_marker_px	ground_marker_py	ground_marker_pz	ground_marker_px	ground_marker_py	ground_marker_pz	ground_marker_px	ground_marker_py	ground_marker_pz	ground_marker_px	ground_marker_py	ground_marker_pz	ground_marker_px	ground_marker_py	ground_marker_pz	ground_marker_px	ground_marker_py	ground_marker_pz	ground_marker_px	ground_marker_py	ground_marker_pz	ground_marker_px	ground_marker_py	ground_marker_pz	ground_marker_px	ground_marker_py	ground_marker_pz	ground_marker_px	ground_marker_py	ground_marker_pz	ground_marker_px	ground_marker_py	ground_marker_pz	ground_marker_px	ground_marker_py	ground_marker_pz	ground_marker_px	ground_marker_py	ground_marker_pz	ground_marker_px	ground_marker_py	ground_marker_pz	ground_marker_px	ground_marker_py	ground_marker_pz	ground_marker_px	ground_marker_py	ground_marker_pz
0.10833324	1.134849081953799	0.9249353145743958	-0.1757140128796508	-1.973627182865188	-7.362987570420232	-0.07390906155589329	27.43807591952821	10.74133066820891	3.439426193957591	-26.92329161484259	1.306715712337977	1.006473756899372e-08	-2.547818925487071e-10	-13.78186993384379	-6.607546933317958	-10	-29.83382287882763	-23.94198235622216	1.479015243871255e-08	-5.816229328437074e-09	-9.322576731992539	10	-2.835068356083424	-97.80233831233018	431.4644046918451	-20.82322115874137	1.364511688450075	7.015842224964668e-09	-0.1166674274933569	-98.53440448043779	431.1280925318775	-21.04657752832338	1.387279672816778	3.77614281152002e-09	-0.1185500904088302	-4.097277673961029e-09	-1.233415448348622	-5.773446725036232e-09	-1.229285744834568e-09	-1.259858455311274	1.750229654570142e-09	1.191065394969669	0.6421491737388999	-0.166188532383833	1.213237911372524	0.6530147592777777	-0.1649934013995623	1.207347052893537	0.6542806800493866	-0.1651962206779044	1.197803634674537	0.6435255439277326	-0.1669662872906592	1.183790606157372	0.642979756492655	-0.1620559447731627	1.194180891873822	0.6454639735836082	-0.1619652592273078	1.189443866921576	0.6512870261848792	-0.1640597087102733	1.187372754601199	0.6471811568159392	-0.1650397247440964	1.180390096453365	0.6437105026561269	-0.1655583115476243	1.194197279121065	0.6493482934592376	-0.1639331610102157	1.152187481829925	0.6439086294292544	-0.1663151976505778	1.179162085736969	0.644599777352092	-0.1651446759566416	1.177626116848491	0.64773677117208	-0.1649849705243395	1.17225663333856	0.649699661431193	-0.1647098130951338	1.204973536215373	0.6487807770171589	-0.1656665833446064	1.154163834631365	0.6462310987317564	-0.163892255550237	1.178099078072753	0.6463063819286932	-0.1648342729727398	1.21137686384176	0.6450367642149115	-0.1646778511445918	1.204005265276401	0.6483090070660141	-0.1649109035969895	1.197177127242167	0.6406133874683508	-0.164088552431562	1.179236255403731	0.649489564062728	-0.166122437059947	1.17663183894687	0.6575946752619519	-0.1665913406527774	1.178768773850928	0.6402962717022976	-0.1652875061020468	1.196487657439524	0.6474859888767605	-0.1676505320030757	1.202898778281869	0.6438820737174973	-0.1640473581550803	1.227884504159051	0.6507530502972046	-0.1633450719911807	1.193416626561166	0.6498876110133461	-0.164211683867046	1.180662858010594	0.6446161403669995	-0.1631923958803069	1.16615837515093	0.6431335530946677	-0.1642491502990577	1.187037085258962	0.638819342637585	-0.1648625407090685	1.190119921286881	0.6431282106481222	-0.1649306159464305	1.161069659451142	0.6492471438217265	-0.164273065145621	1.214669383089535	0.6487315505364885	-0.1643692535352376	1.158692345099436	0.6558163874424675	-0.1639388910014931	1.233229582035506	0.646168234761237	-0.1661463279422254	1.207872934492361	0.6398815366432217	-0.1634017109699009	1.173228052273589	0.6371766426872433	-0.1654124858054002
0.1166665735652174	1.144997644422559	0.9249353145743958	-0.1749141649027366	-2.017314901495713	-7.604858831213948	0.09093625792132401	26.74923965617844	11.10874695553408	3.59386252988117	-27.17708073010685	2.214844178048412	9.896325140085716e-09	-3.703524869148002e-10	-11.96109756846705	-7.166884545669183	-10	-32.88231357020071	-25.14798823410742	1.427223900867822e-08	-5.742181481841467e-09	-9.126155474789844	10	-2.920188118854601	-95.1033149790141	442.6137067407408	-20.4200830721572	1.366928769649615	6.828115958118625e-09	-0.1174818230720423	-95.79178029563926	442.290038589237	-20.63701696168742	1.389198296004251	4.137025741122975e-09	-0.1193498511655876	-3.855025372235843e-09	-1.296136931012519	-5.856182850111112e-09	-1.084378898366462e-09	-1.322549658452392	1.882739216676504e-09	1.203413809069851	0.643580871034991	-0.1648859115223877	1.225461930317896	0.6543762106189843	-0.1637042677817465	1.218026512103599	0.6556816879682987	-0.1639630983053646	1.20916449890523	0.6451350743250281	-0.1656636243036726	1.195571283802923	0.6444142397278678	-0.1608729873616309	1.206791361336296	0.6470365449942858	-0.1607927635165087	1.200516750294372	0.6525465247820583	-0.1628251287263137	1.199332370518282	0.6486834332505969	-0.1637847481602417	1.191657911356856	0.6454012062445934	-0.1643314345042117	1.205896788333175	0.6508210248876085	-0.1627586940360465	1.164786177003072	0.6455657419742359	-0.1650429743597847	1.191050108479894	0.6460524873700001	-0.1638805962212596	1.189945945947191	0.6492498047322045	-0.163808095884794	1.184592170555313	0.6509501410319071	-0.1634312981427011	1.217173074114728	0.6501576680777599	-0.1643456226299883	1.1671250925397	0.6475901293038531	-0.1626790237863442	1.189540120349544	0.6479861384806734	-0.1635610030431834	1.222510246595904	0.646800063163921	-0.1634782176173013	1.214713335637803	0.6495097647364982	-0.1636736274756281	1.207989388929815	0.6420924119005192	-0.1629126350385714	1.1911203668434	0.6508845836340911	-0.1648467126137991	1.18785903525903	0.6587692293220314	-0.1653221474324253	1.190391586913317	0.6419205118118458	-0.164012481496262	1.208290737416053	0.6489677006544037	-0.1663606968851713	1.214116898026721	0.6454415072413378	-0.1628463657888296	1.238450165329311	0.6521300726175576	-0.1621147515505212	1.205412006192428	0.6514329499844391	-0.1630354369109123	1.192866497785892	0.646076352110961	-0.1619544419705879	1.177105600779405	0.644706310139072	-0.1630415727370774	1.199033767030272	0.6405800319036156	-0.1636165961290586	1.20215999493029	0.6447263723140243	-0.1636883856781182	1.173157920124269	0.6507931130311148	-0.1630404956560447	1.225899319607858	0.6502168405210986	-0.1631557730669635	1.171140579430407	0.6570245543022998	-0.1626987168230262	1.244158637037772	0.6477504450958688	-0.164864108156902	1.218849619982965	0.6416491521126891	-0.1621979930635572	1.184871849056046	0.6387488231979574	-0.1641891556332062
0.1249999071304348	1.154531898262392	0.9249353145743958	-0.1742010582909344	-2.132348926383373	-7.78866804371	0.2529622944914561	26.02760203831921	11.40550575649862	3.620759364125202	-27.19499580982765	3.02365151830827	9.55848431515252e-09	-6.033802826264914e-10	-9.965086466778933	-7.611368910915567	-10	-35.89026277874626	-25.80637509124731	1.326886445060529e-08	-5.586055239045859e-09	-8.926124313294249	10	-2.949339489343301	-89.83211697892436	449.8925557180484	-19.55205647461173	1.369103762917657	6.471476758968883e-09	-0.118281946245323	-90.43792341603081	449.5867027300342	-19.7563662904906	1.390354679264407	4.794714527502281e-09	-0.1201234193569538	-3.391340802854436e-09	-1.333538637624981	-6.019303819042237e-09	-8.085740812604808e-10	-1.359825160641464	2.137156920926022e-09	1.215968163614546	0.6452858459232791	-0.1636889943993265	1.237740215866292	0.6559364267780033	-0.1625333107103651	1.227385285161561	0.6573037002311041	-0.162893409423557	1.21986262345352	0.6471543609063521	-0.1644650654144487	1.207062931681625	0.646105460116744	-0.1599049295947579	1.219849477406206	0.6490037395074736	-0.1598453323451407	1.210654109977552	0.6539126339555571	-0.1617591870945418	1.211166515504609	0.650506555609161	-0.1626771397693088	1.202203653831056	0.6475817860821486	-0.1632722603333692	1.217210374624948	0.652576753566678	-0.1618027110608556	1.177855080688955	0.6476726807441771	-0.1639035391358682	1.202705528846964	0.6477798727563006	-0.1627540727807499	1.202460565880967	0.65110217516048	-0.1628479305753371	1.197149657014082	0.6522965344741921	-0.1622834712782341	1.229453104768102	0.6517382278661479	-0.1631190973895525	1.180908855017131	0.6491432319588329	-0.1616517925184284	1.200417351143424	0.650164297400775	-0.1624144622204318	1.23271220361936	0.6491204813293731	-0.1624782205466766	1.224171827567986	0.6507704902753982	-0.1626020650067858	1.217640186180099	0.6438913216955121	-0.1619557529325616	1.202763099419405	0.6524997280285655	-0.1637008381843454	1.198284765594255	0.6599668665582999	-0.1641833214937081	1.201572743021064	0.6439936467740625	-0.1628696277262752	1.219751695605705	0.6507615348352125	-0.165186370548846	1.224542710021529	0.6473734974580593	-0.161842575509208	1.247590623539031	0.6537152099974382	-0.1610531829167383	1.217277090415706	0.6533231783466033	-0.1620768757767993	1.205144442570635	0.6478189648695181	-0.1608805635285071	1.187114065474656	0.6466813908512787	-0.162023851271344	1.210878226783711	0.6428967020904199	-0.1625306608845888	1.214136676224924	0.6467412872705778	-0.1626050979774808	1.185234909675915	0.6527227224559655	-0.161975187649151	1.23629223961207	0.652002938743459	-0.1621318712916153	1.183917511546705	0.6582725649737786	-0.1616213071545391	1.254023792064165	0.649723432331174	-0.1637081169537357	1.228823569647632	0.6439897695000733	-0.1611946955461283	1.196084989217249	0.640732771823422	-0.1631413654556698
0.1333332406956522	1.163541373049456	0.9249353145743958	-0.1735533700976945	-2.295794415003604	-7.912019209365734	0.3941160838640037	25.26230903088259	11.63872541264566	3.607189103067336	-27.01033557663977	3.738856156980334	9.054143973811653e-09	-9.536145124400331e-10	-7.841924795968239	-7.931689585633726	-10	-38.80917133435592	-25.87128892765928	1.184262880912337e-08	-5.335618732083992e-09	-8.693905374026784	10	-2.952271814843716	-82.78266643558842	449.6582940490641	-19.05969209844941	1.370928412519219	5.982395925386362e-09	-0.1189285743910535	-83.27520918736994	449.3641145263018	-19.24560909292002	1.39060812404792	5.636276467510163e-09	-0.1207369557093715	-2.744408575523327e-09	-1.331042722956526	-6.251801960210084e-09	-4.316053567575597e-10	-1.356993134948073	2.489260130620425e-09	1.22863549054067	0.6472723720283132	-0.1626238263836199	1.249918711570106	0.657696077497305	-0.1615031615737606	1.235589565591413	0.6591220835611521	-0.1619901433760096	1.230022084811951	0.6495206554938852	-0.1633925262264646	1.218294003903925	0.6480335164065802	-0.159157229400989	1.23321048259117	0.6513413670034708	-0.1591272339540697	1.220012662133216	0.6554081201703376	-0.1608758025264359	1.222881199672588	0.6526221594400211	-0.1617309439621945	1.212205872099672	0.6501871769673072	-0.1623801866357001	1.228131632950686	0.6545716840558822	-0.161061996961046	1.191318465127277	0.650153191970855	-0.1629152738212894	1.214082095325898	0.6497580852126773	-0.161777642890343	1.215100753827711	0.6532763154907987	-0.1621013776597203	1.209880011154084	0.6537579652279999	-0.161292441292558	1.241753597874323	0.6535044883608496	-0.1620238413467824	1.195423062934522	0.6508928819105401	-0.1608180198121947	1.21088028060599	0.6528076730134607	-0.1614045627604113	1.242035914679479	0.65192440807161	-0.1616858627750378	1.232619343898914	0.6521349141920336	-0.1617102406441116	1.226345003541181	0.646020909416014	-0.1612169296916873	1.214100931294296	0.6543208553716481	-0.1627040986247251	1.20801501720956	0.6612133647520659	-0.1631842363628968	1.212350011971452	0.6464962892086924	-0.161880516474266	1.230781506394333	0.6528588540761532	-0.1641466317638551	1.234318777864637	0.6496377884262604	-0.1610410673549676	1.255482211166916	0.6554971353106697	-0.1601682550986585	1.228939793051063	0.6554953388751543	-0.1613334245373068	1.217427881245515	0.6498225289603715	-0.1599832523553237	1.19655289094073	0.6490468849461047	-0.1612010720249026	1.222453790318555	0.6456942670716953	-0.1616256354656515	1.22601785808174	0.6491427980069074	-0.1616923583676587	1.197278011673846	0.6550379862145562	-0.1610860996731477	1.245895119226989	0.654053671285709	-0.1613115381718503	1.196959446877584	0.6595544834375362	-0.1607215431484756	1.262999393497468	0.652039365874726	-0.1627023326109923	1.237986420591598	0.6468534936677723	-0.1604080103137242	1.206892066030725	0.6431330491064309	-0.1622769288783734
